<svg width="18" height="18" viewBox="0 0 18 18" fill="none" xmlns="http://www.w3.org/2000/svg">
<path d="M16.474 8.07538L13.3099 10.8056L14.2739 14.8887C14.3271 15.1103 14.3134 15.3428 14.2345 15.5566C14.1557 15.7705 14.0152 15.9562 13.8309 16.0903C13.6465 16.2244 13.4266 16.3008 13.1988 16.3099C12.9711 16.3191 12.7457 16.2605 12.5512 16.1416L9.00044 13.9563L5.44755 16.1416C5.25309 16.2598 5.028 16.3178 4.80064 16.3084C4.57327 16.2989 4.35379 16.2223 4.16984 16.0884C3.98588 15.9544 3.84568 15.769 3.76688 15.5555C3.68808 15.342 3.6742 15.11 3.72701 14.8887L4.69451 10.8056L1.53044 8.07538C1.35839 7.92668 1.23395 7.73058 1.17268 7.51158C1.11141 7.29258 1.11602 7.06038 1.18592 6.84398C1.25583 6.62758 1.38794 6.43657 1.56576 6.29481C1.74358 6.15304 1.95922 6.06681 2.18576 6.04687L6.33419 5.71218L7.93451 1.83937C8.02113 1.6283 8.16856 1.44776 8.35805 1.3207C8.54754 1.19364 8.77054 1.12579 8.99869 1.12579C9.22684 1.12579 9.44983 1.19364 9.63932 1.3207C9.82882 1.44776 9.97624 1.6283 10.0629 1.83937L11.6625 5.71218L15.8109 6.04687C16.0379 6.06607 16.2542 6.15182 16.4326 6.29339C16.6111 6.43496 16.7438 6.62604 16.8142 6.8427C16.8845 7.05937 16.8893 7.29197 16.8281 7.51137C16.7668 7.73077 16.6422 7.92722 16.4697 8.07609L16.474 8.07538Z" fill="#ffffff33"/>
</svg>
