<svg width="16" height="16" viewBox="0 0 16 16" fill="none" xmlns="http://www.w3.org/2000/svg">
<g clip-path="url(#clip0_249_6958)">
<path d="M11.9321 3.66708C11.7406 3.46439 11.4774 3.34473 11.1987 3.33374H10.6654V2.66708C10.6701 2.5345 10.6474 2.40238 10.5988 2.27895C10.5502 2.15552 10.4767 2.04341 10.3829 1.94961C10.2891 1.85581 10.177 1.78231 10.0535 1.73371C9.9301 1.6851 9.79799 1.66242 9.66541 1.66708H7.29875C6.5762 1.01732 5.63712 0.660708 4.66541 0.667076C3.60455 0.667076 2.58713 1.0885 1.83699 1.83865C1.08684 2.58879 0.665412 3.60621 0.665412 4.66708C0.659934 4.79024 0.671147 4.91358 0.698746 5.03374H0.665412V11.6671C0.660756 11.7997 0.683438 11.9318 0.732044 12.0552C0.780651 12.1786 0.854144 12.2907 0.947947 12.3845C1.04175 12.4783 1.15386 12.5518 1.27729 12.6004C1.40072 12.649 1.53284 12.6717 1.66541 12.6671H2.43208C2.57714 13.1465 2.8726 13.5665 3.27479 13.865C3.67698 14.1635 4.16455 14.3246 4.66541 14.3246C5.16627 14.3246 5.65384 14.1635 6.05603 13.865C6.45822 13.5665 6.75369 13.1465 6.89875 12.6671H9.09875C9.2438 13.1465 9.53927 13.5665 9.94146 13.865C10.3437 14.1635 10.8312 14.3246 11.3321 14.3246C11.8329 14.3246 12.3205 14.1635 12.7227 13.865C13.1249 13.5665 13.4204 13.1465 13.5654 12.6671H14.3321C14.4647 12.6717 14.5968 12.649 14.7202 12.6004C14.8436 12.5518 14.9557 12.4783 15.0495 12.3845C15.1433 12.2907 15.2168 12.1786 15.2654 12.0552C15.3141 11.9318 15.3367 11.7997 15.3321 11.6671V7.40041L11.9321 3.66708ZM11.0321 4.66708L13.4654 7.33374H10.6654V4.66708H11.0321ZM4.66541 2.00041C5.19283 2.00041 5.7084 2.15681 6.14693 2.44982C6.58546 2.74284 6.92726 3.15932 7.12909 3.64659C7.33092 4.13386 7.38373 4.67003 7.28084 5.18732C7.17795 5.7046 6.92397 6.17975 6.55103 6.55269C6.17809 6.92563 5.70294 7.17961 5.18565 7.2825C4.66837 7.3854 4.13219 7.33259 3.64492 7.13075C3.15765 6.92892 2.74118 6.58713 2.44816 6.1486C2.15514 5.71006 1.99875 5.19449 1.99875 4.66708C1.99875 3.95983 2.2797 3.28155 2.77979 2.78146C3.27989 2.28136 3.95817 2.00041 4.66541 2.00041ZM4.66541 13.0004C4.46763 13.0004 4.27429 12.9418 4.10984 12.8319C3.94539 12.722 3.81722 12.5658 3.74153 12.3831C3.66585 12.2004 3.64604 11.9993 3.68463 11.8053C3.72321 11.6113 3.81845 11.4332 3.95831 11.2933C4.09816 11.1534 4.27634 11.0582 4.47032 11.0196C4.6643 10.981 4.86537 11.0008 5.0481 11.0765C5.23082 11.1522 5.387 11.2804 5.49688 11.4448C5.60676 11.6093 5.66541 11.8026 5.66541 12.0004C5.67007 12.133 5.64739 12.2651 5.59878 12.3885C5.55017 12.512 5.47668 12.6241 5.38288 12.7179C5.28908 12.8117 5.17697 12.8852 5.05354 12.9338C4.9301 12.9824 4.79799 13.0051 4.66541 13.0004ZM11.3321 13.0004C11.1343 13.0004 10.941 12.9418 10.7765 12.8319C10.6121 12.722 10.4839 12.5658 10.4082 12.3831C10.3325 12.2004 10.3127 11.9993 10.3513 11.8053C10.3899 11.6113 10.4851 11.4332 10.625 11.2933C10.7648 11.1534 10.943 11.0582 11.137 11.0196C11.331 10.981 11.532 11.0008 11.7148 11.0765C11.8975 11.1522 12.0537 11.2804 12.1635 11.4448C12.2734 11.6093 12.3321 11.8026 12.3321 12.0004C12.3367 12.133 12.3141 12.2651 12.2654 12.3885C12.2168 12.512 12.1433 12.6241 12.0495 12.7179C11.9557 12.8117 11.8436 12.8852 11.7202 12.9338C11.5968 12.9824 11.4647 13.0051 11.3321 13.0004Z" fill="#38A9F5"/>
<path d="M6.66667 4.66699C6.66667 4.49018 6.59643 4.32061 6.4714 4.19559C6.34638 4.07056 6.17681 4.00033 6 4.00033H5.33333V3.33366C5.33333 3.15685 5.2631 2.98728 5.13807 2.86225C5.01305 2.73723 4.84348 2.66699 4.66667 2.66699C4.48986 2.66699 4.32029 2.73723 4.19526 2.86225C4.07024 2.98728 4 3.15685 4 3.33366V5.33366H6C6.17681 5.33366 6.34638 5.26342 6.4714 5.1384C6.59643 5.01337 6.66667 4.8438 6.66667 4.66699Z" fill="#38A9F5"/>
</g>
<defs>
<clipPath id="clip0_249_6958">
<rect width="16" height="16" fill="white"/>
</clipPath>
</defs>
</svg>
