<svg width="304" height="660" viewBox="0 0 304 660" fill="none" xmlns="http://www.w3.org/2000/svg">
<g clip-path="url(#clip0_482_22129)">
<rect width="304" height="660" fill="black" fill-opacity="0.2"/>
<path d="M17.1377 9.45397L138.689 9.45398L138.689 31.5133L87.6674 31.5133L87.6674 36.0152L138.689 55.6734L138.689 77.7327L81.3647 54.623L17.1377 79.5335L17.1377 57.024L73.1113 36.0152L73.1113 31.5133L17.1377 31.5133L17.1377 9.45397ZM15.487 123.354C15.487 114.751 17.0877 107.898 20.289 102.796C23.4904 97.6935 28.0923 94.0419 34.0948 91.841C40.0974 89.6401 47.2003 88.5396 55.4038 88.5396L100.873 88.5396C109.076 88.5396 116.079 89.6401 121.882 91.841C127.784 94.0419 132.286 97.6935 135.387 102.796C138.489 107.898 140.039 114.751 140.039 123.354C140.039 132.158 138.489 139.061 135.387 144.063C132.286 149.165 127.784 152.817 121.882 155.018C116.079 157.319 109.076 158.469 100.873 158.469L55.2537 158.469C47.1503 158.469 40.0974 157.319 34.0948 155.018C28.1923 152.817 23.5904 149.165 20.289 144.063C17.0877 139.061 15.487 132.158 15.487 123.354ZM31.8439 123.354C31.8439 127.056 32.6442 129.757 34.2449 131.458C35.8456 133.258 38.0465 134.459 40.8477 135.059C43.6488 135.659 46.7001 135.96 50.0015 135.96L105.975 135.96C109.377 135.96 112.428 135.659 115.129 135.059C117.83 134.459 119.931 133.258 121.432 131.458C123.032 129.757 123.833 127.056 123.833 123.354C123.833 119.853 123.032 117.202 121.432 115.401C119.931 113.6 117.83 112.4 115.129 111.799C112.428 111.199 109.377 110.899 105.975 110.899L50.0015 110.899C46.7001 110.899 43.6488 111.149 40.8477 111.649C38.0465 112.25 35.8456 113.45 34.2449 115.251C32.6442 117.052 31.8439 119.753 31.8439 123.354ZM17.1377 174.597L138.689 176.698L138.689 199.658L54.5034 216.915L138.689 234.923L138.689 257.132L17.1377 259.383L17.1377 242.876L101.623 241.075L17.1377 223.818L17.1377 210.462L101.923 192.905L17.1377 191.254L17.1377 174.597ZM17.1377 277.333L138.689 277.333L138.689 347.413L17.1377 347.413L17.1377 325.503L122.932 325.503L122.932 299.242L17.1377 299.242L17.1377 277.333ZM17.1377 357.297L33.0444 357.297C32.9443 360.098 33.0944 362.449 33.4946 364.35C33.9948 366.351 35.0452 368.001 36.6459 369.302C38.2466 370.702 40.6976 371.853 43.999 372.753C47.4004 373.654 51.9523 374.404 57.6547 375.004C63.3571 375.605 70.6102 376.255 79.4139 376.955L138.689 380.857L138.689 439.982L17.1377 439.982L17.1377 417.922L122.032 417.922L122.032 400.515L76.7128 397.814C67.809 397.214 59.9557 396.513 53.1528 395.713C46.35 395.013 40.5475 393.862 35.7455 392.262C31.0435 390.761 27.2419 388.61 24.3407 385.809C21.4395 383.008 19.3886 379.306 18.1881 374.704C17.0877 370.102 16.7375 364.3 17.1377 357.297ZM17.1377 458.757L138.689 458.757L138.689 509.779L123.082 509.779L123.082 480.966L88.1176 480.966L88.1175 503.626L72.661 503.626L72.661 480.966L32.4441 480.966L32.4441 510.079L17.1377 510.079L17.1377 458.757ZM17.1377 523.244L138.689 523.244L138.689 545.304L87.6674 545.304L87.6674 549.806L138.689 569.464L138.689 591.523L81.3647 568.413L17.1377 593.324L17.1377 570.814L73.1112 549.806L73.1112 545.304L17.1377 545.304L17.1377 523.244ZM17.1377 616.286L122.332 616.286L122.332 596.928L138.689 596.928L138.689 657.553L122.332 657.553L122.332 638.495L17.1377 638.495L17.1377 616.286Z" fill="white"/>
</g>
<defs>
<clipPath id="clip0_482_22129">
<rect width="304" height="660" fill="white"/>
</clipPath>
</defs>
</svg>
