<svg width="101" height="100" viewBox="0 0 101 100" fill="none" xmlns="http://www.w3.org/2000/svg">
<g style="mix-blend-mode:exclusion">
<path d="M43.3572 100L29.0715 85.7143L43.3572 71.4286L57.6429 85.7143L43.3572 100Z" fill="#E2102E"/>
<path d="M86.2143 71.4286L71.9286 57.1428L86.2143 42.8571L100.5 57.1428L86.2143 71.4286Z" fill="#E2102E"/>
<path d="M57.6428 28.5714L43.3571 14.2857L57.6428 0L71.9285 14.2857L57.6428 28.5714Z" fill="#E2102E"/>
<path fill-rule="evenodd" clip-rule="evenodd" d="M50.5 7.14254L93.3573 49.9999L50.5 92.8572L7.6427 49.9998L50.5 7.14254ZM50.5 64.2856L64.7858 49.9998L50.5 35.7141L36.2142 49.9999L50.5 64.2856Z" fill="#E2102E"/>
<path d="M14.7857 57.1429L0.5 42.8572L14.7857 28.5714L29.0714 42.8571L14.7857 57.1429Z" fill="#E2102E"/>
</g>
</svg>
