<svg width="338" height="339" viewBox="0 0 338 339" fill="none" xmlns="http://www.w3.org/2000/svg">
<path d="M23.7183 160.599C23.6578 161.717 23.3928 162.639 22.9235 163.366C22.4389 164.093 21.7652 164.624 20.9023 164.961C20.0395 165.299 18.9944 165.457 17.7671 165.437L17.3508 162.489C18.0721 162.497 18.712 162.447 19.2707 162.339C19.8302 162.216 20.2709 162.017 20.5929 161.743C20.9004 161.453 21.0674 161.062 21.0939 160.572C21.1237 160.021 20.9841 159.622 20.675 159.375C20.3506 159.127 19.9358 158.989 19.4305 158.962C18.619 158.918 17.9431 159.066 17.4026 159.405C16.8621 159.744 16.315 160.206 15.7613 160.79L13.5675 163.021C12.9654 163.649 12.309 164.143 11.5985 164.504C10.8734 164.848 9.99802 164.993 8.97218 164.937C7.50234 164.858 6.39254 164.368 5.6428 163.467C4.89305 162.567 4.55838 161.374 4.63879 159.889C4.68604 159.016 4.86321 158.296 5.17031 157.729C5.4621 157.162 5.85443 156.722 6.3473 156.411C6.84101 156.085 7.39864 155.854 8.02019 155.718C8.62644 155.582 9.26764 155.51 9.94381 155.5L10.2924 158.421C9.70892 158.42 9.18462 158.461 8.71949 158.543C8.25519 158.61 7.88585 158.767 7.61147 159.013C7.33792 159.244 7.18789 159.605 7.16136 160.094C7.134 160.6 7.28129 160.999 7.60321 161.293C7.91064 161.571 8.30934 161.723 8.79928 161.749C9.42703 161.783 9.95465 161.681 10.3821 161.444C10.7943 161.205 11.228 160.852 11.6832 160.385L13.8528 158.176C14.5373 157.446 15.3305 156.836 16.2322 156.347C17.1195 155.843 18.1755 155.623 19.4004 155.69C20.2884 155.738 21.0662 155.979 21.7336 156.415C22.4019 156.835 22.916 157.408 23.2759 158.134C23.6214 158.843 23.7688 159.665 23.7183 160.599ZM24.2147 152.156L5.26571 153.594L5.63481 150.604L19.016 149.776L6.21805 145.879L6.5956 142.82L24.626 148.823L24.2147 152.156ZM25.0209 145.898L7.4716 138.619L8.17853 135.054L27.1774 135.024L26.5645 138.115L22.2025 138L21.5716 141.181L25.6428 142.762L25.0209 145.898ZM19.518 140.422L20.0102 137.94L12.0935 137.66L19.518 140.422ZM30.3008 125.197C29.9679 126.265 29.4849 127.095 28.8515 127.684C28.2036 128.269 27.42 128.62 26.5008 128.735C25.5816 128.85 24.5296 128.747 23.3448 128.426L23.6644 125.466C24.3616 125.652 24.9942 125.76 25.5623 125.793C26.1349 125.81 26.6109 125.726 26.9903 125.539C27.3597 125.333 27.6173 124.995 27.7632 124.527C27.9273 124 27.8899 123.579 27.6509 123.263C27.3972 122.943 27.0288 122.708 26.5457 122.558C25.7698 122.316 25.0782 122.293 24.471 122.49C23.8639 122.686 23.2202 122.999 22.5401 123.43L19.8661 125.054C19.1284 125.515 18.3708 125.833 17.5935 126.009C16.8061 126.165 15.9219 126.09 14.9411 125.785C13.5357 125.347 12.58 124.6 12.0741 123.543C11.5681 122.486 11.5363 121.248 11.9786 119.828C12.2385 118.993 12.5868 118.339 13.0236 117.864C13.4457 117.386 13.9339 117.056 14.488 116.875C15.0467 116.68 15.6439 116.593 16.2797 116.614C16.9008 116.631 17.5402 116.718 18.1981 116.874L17.8194 119.792C17.254 119.648 16.7357 119.559 16.2646 119.524C15.7981 119.475 15.4016 119.537 15.0752 119.708C14.7534 119.865 14.5195 120.177 14.3736 120.646C14.2231 121.129 14.2679 121.552 14.5079 121.916C14.7378 122.261 15.087 122.506 15.5555 122.652C16.1557 122.839 16.6922 122.869 17.165 122.744C17.6232 122.613 18.1302 122.378 18.686 122.037L21.3311 120.428C22.174 119.887 23.0924 119.491 24.0865 119.238C25.0705 118.967 26.148 119.013 27.3192 119.378C28.1683 119.642 28.863 120.067 29.4032 120.653C29.948 121.224 30.3059 121.906 30.4768 122.698C30.6376 123.471 30.5789 124.304 30.3008 125.197ZM32.5248 117.923L17.4772 112.133L16.4117 114.902L14.0719 114.002L17.4086 105.33L19.7484 106.23L18.6995 108.956L33.7471 114.746L32.5248 117.923ZM37.5062 106.995C36.9439 108.188 36.2741 109.033 35.4969 109.531C34.7196 110.029 33.8429 110.235 32.8669 110.148C31.8909 110.06 30.8343 109.749 29.697 109.213L23.3932 106.241C22.2559 105.705 21.357 105.095 20.6964 104.41C20.0219 103.72 19.6364 102.919 19.5399 102.009C19.4434 101.099 19.6763 100.048 20.2386 98.8548C20.8139 97.6343 21.48 96.7786 22.2369 96.2879C23.0003 95.7832 23.863 95.5712 24.8252 95.6518C25.78 95.712 26.826 96.0101 27.9634 96.5463L34.2879 99.5276C35.4113 100.057 36.3139 100.678 36.9957 101.389C37.6702 102.08 38.0696 102.887 38.1938 103.81C38.3107 104.713 38.0815 105.774 37.5062 106.995ZM35.2385 105.926C35.4804 105.413 35.546 104.986 35.4352 104.645C35.331 104.291 35.1043 103.981 34.7552 103.715C34.4061 103.448 34.0027 103.207 33.545 102.992L25.7849 99.3335C25.3134 99.1112 24.8707 98.9534 24.457 98.8601C24.0433 98.7668 23.6736 98.7959 23.3479 98.9475C23.0148 99.0786 22.7273 99.4008 22.4854 99.914C22.2566 100.399 22.1943 100.819 22.2985 101.174C22.3889 101.521 22.6017 101.825 22.9369 102.085C23.2722 102.344 23.6756 102.586 24.1472 102.808L31.9072 106.466C32.3649 106.682 32.8042 106.846 33.2253 106.96C33.6529 107.06 34.0364 107.037 34.376 106.892C34.7156 106.747 35.0031 106.425 35.2385 105.926ZM40.3521 100.629L24.1941 91.3554L25.3733 89.3008L36.8447 90.6602L27.6286 85.371L29.0253 82.9373L45.1834 92.2106L44.0614 94.1655L32.1397 92.5742L41.7946 98.1153L40.3521 100.629ZM46.2138 90.6109L30.7382 80.2386L35.092 73.7427L37.079 75.0745L34.6203 78.7427L39.072 81.7264L41.0056 78.8414L42.9734 80.1603L41.0398 83.0453L46.1602 86.4771L48.6444 82.7706L50.5931 84.0767L46.2138 90.6109ZM57.2483 76.071C56.5374 76.9356 55.7775 77.5216 54.9686 77.8292C54.1479 78.1271 53.2902 78.1562 52.3953 77.9166C51.5005 77.6771 50.5647 77.1854 49.5881 76.4418L50.9993 73.8205C51.5754 74.2546 52.1205 74.5936 52.6345 74.8377C53.1582 75.0698 53.631 75.1708 54.0529 75.1406C54.4727 75.0888 54.8385 74.8734 55.1501 74.4944C55.5007 74.0681 55.6248 73.6638 55.5221 73.2816C55.4077 72.8897 55.155 72.5331 54.7642 72.2117C54.1365 71.6955 53.5045 71.4139 52.8681 71.367C52.2317 71.3201 51.5174 71.368 50.7251 71.5105L47.6362 72.0077C46.7792 72.1566 45.9577 72.1659 45.1715 72.0355C44.3832 71.8836 43.5924 71.4813 42.7989 70.8288C41.662 69.8938 41.0583 68.8415 40.9879 67.6719C40.9174 66.5022 41.3546 65.343 42.2993 64.1942C42.8544 63.5192 43.4236 63.0443 44.0069 62.7696C44.5783 62.4851 45.1547 62.3636 45.7361 62.4049C46.3273 62.4345 46.9133 62.5789 47.4941 62.8382C48.0631 63.0877 48.6228 63.409 49.1731 63.802L47.7232 66.3617C47.2537 66.0153 46.8072 65.7375 46.3837 65.5282C45.97 65.3071 45.5797 65.2144 45.2128 65.2502C44.8556 65.2741 44.5212 65.4755 44.2096 65.8545C43.8882 66.2453 43.7701 66.6545 43.8553 67.0819C43.9384 67.4878 44.1695 67.8465 44.5485 68.1582C45.034 68.5575 45.5195 68.788 46.0048 68.8496C46.4783 68.9015 47.0367 68.8743 47.6799 68.768L50.7365 68.274C51.7209 68.0909 52.721 68.0697 53.7369 68.2103C54.7508 68.3294 55.7314 68.7785 56.6788 69.5576C57.3657 70.1225 57.849 70.778 58.1287 71.5242C58.4182 72.2586 58.4929 73.0248 58.3528 73.8228C58.2106 74.5992 57.8424 75.3486 57.2483 76.071ZM62.6523 69.5647L46.54 59.4887L48.6102 57.2995L59.8768 64.5662L51.8813 53.8402L53.9988 51.6008L64.9595 67.1248L62.6523 69.5647ZM67.0116 65.003L57.1844 48.7431L59.8654 46.29L75.1906 57.5194L72.8658 59.6465L69.4194 56.9702L67.0269 59.1594L69.3703 62.8449L67.0116 65.003ZM65.8219 57.3314L67.6885 55.6235L61.4763 50.7081L65.8219 57.3314ZM83.5186 51.4393C82.6182 52.1043 81.7383 52.4874 80.8789 52.5884C80.0104 52.6771 79.1714 52.4962 78.362 52.0456C77.5526 51.595 76.765 50.89 75.9992 49.9306L78.0072 47.7327C78.46 48.2941 78.9059 48.7559 79.3449 49.1179C79.7962 49.4708 80.2301 49.684 80.6466 49.7576C81.0664 49.8098 81.4736 49.6901 81.8683 49.3986C82.3123 49.0706 82.5311 48.7088 82.5248 48.3131C82.5094 47.9051 82.3514 47.4976 82.0508 47.0906C81.5679 46.4369 81.0237 46.0097 80.4179 45.809C79.8122 45.6083 79.1077 45.4805 78.3047 45.4256L75.1878 45.1544C74.3203 45.0897 73.5213 44.8983 72.7907 44.5802C72.0633 44.2406 71.3944 43.6576 70.784 42.8313C69.9095 41.6472 69.5807 40.4795 69.7977 39.328C70.0146 38.1764 70.7213 37.1589 71.9176 36.2752C72.6207 35.7559 73.2885 35.4342 73.9212 35.31C74.5447 35.1735 75.1334 35.1962 75.6871 35.3781C76.2532 35.551 76.7863 35.8339 77.2863 36.2271C77.7773 36.6079 78.2417 37.056 78.6795 37.5713L76.6491 39.7001C76.2783 39.2496 75.913 38.8713 75.5534 38.5651C75.2061 38.2497 74.8502 38.0646 74.4856 38.0098C74.1334 37.9459 73.76 38.0597 73.3653 38.3512C72.9583 38.6519 72.744 39.0198 72.7224 39.4552C72.704 39.869 72.8406 40.2733 73.1321 40.668C73.5056 41.1737 73.9202 41.5156 74.3759 41.6937C74.8224 41.8595 75.3705 41.9693 76.0203 42.0232L79.105 42.2895C80.1043 42.3521 81.0795 42.5754 82.0304 42.9596C82.9846 43.3223 83.8261 43.997 84.5549 44.9837C85.0832 45.699 85.3921 46.4527 85.4813 47.2445C85.5829 48.0273 85.4685 48.7886 85.138 49.5283C84.8108 50.2466 84.2709 50.8836 83.5186 51.4393ZM89.6139 46.8883L80.9041 33.3203L78.4073 34.9231L77.053 32.8134L84.8725 27.7938L86.2268 29.9035L83.7687 31.4815L92.4785 45.0495L89.6139 46.8883ZM100.089 41.0135C98.9311 41.6446 97.8915 41.9319 96.97 41.8753C96.0486 41.8188 95.2196 41.4673 94.4831 40.821C93.7466 40.1747 93.0774 39.2995 92.4757 38.1955L89.1403 32.0766C88.5385 30.9726 88.1729 29.9494 88.0434 29.0071C87.9066 28.0514 88.0678 27.1777 88.5269 26.386C88.986 25.5944 89.7945 24.883 90.9524 24.2519C92.1371 23.6061 93.1798 23.3084 94.0805 23.3588C94.9946 23.4019 95.8162 23.7399 96.5454 24.3728C97.2807 24.9848 97.9492 25.8429 98.551 26.9468L101.897 33.086C102.492 34.1765 102.854 35.2101 102.985 36.1867C103.122 37.1424 102.968 38.0296 102.524 38.8482C102.085 39.6459 101.274 40.3677 100.089 41.0135ZM98.8891 38.8123C99.3872 38.5407 99.692 38.2349 99.8035 37.8947C99.9284 37.5472 99.9285 37.163 99.8038 36.742C99.6791 36.321 99.4957 35.8883 99.2535 35.444L95.1475 27.9114C94.898 27.4537 94.6338 27.0651 94.3549 26.7456C94.0759 26.4261 93.7603 26.2315 93.4078 26.1616C93.0616 26.071 92.6393 26.1614 92.1412 26.4329C91.67 26.6898 91.3719 26.992 91.247 27.3395C91.1148 27.6735 91.1073 28.0443 91.2247 28.4518C91.342 28.8594 91.5255 29.292 91.775 29.7498L95.881 37.2824C96.1231 37.7266 96.3806 38.1189 96.6534 38.4592C96.9397 38.7921 97.2627 39.0003 97.6225 39.0836C97.9822 39.1669 98.4044 39.0765 98.8891 38.8123ZM106.143 37.5536L98.5688 20.5328L100.733 19.5696L109.193 27.4357L104.873 17.7275L107.436 16.5867L115.011 33.6075L112.951 34.5239L104.265 26.2049L108.791 36.3754L106.143 37.5536ZM116.788 32.9269L110.454 15.4067L117.808 12.7479L118.621 14.9974L114.468 16.4989L116.29 21.5386L119.556 20.3578L120.362 22.5857L117.096 23.7665L119.191 29.5633L123.387 28.0462L124.185 30.2524L116.788 32.9269ZM134.285 27.7296C133.2 28.0056 132.241 28.0282 131.407 27.7974C130.569 27.5517 129.86 27.0674 129.281 26.3446C128.701 25.6219 128.238 24.6717 127.891 23.4943L130.58 22.2168C130.788 22.9077 131.026 23.5036 131.296 24.0045C131.581 24.5017 131.902 24.8629 132.26 25.0883C132.629 25.295 133.051 25.3379 133.527 25.2169C134.062 25.0808 134.401 24.8284 134.545 24.4596C134.684 24.076 134.692 23.639 134.567 23.1486C134.367 22.3611 134.024 21.76 133.539 21.3455C133.054 20.931 132.45 20.5467 131.727 20.1927L128.943 18.765C128.164 18.3778 127.496 17.899 126.94 17.3286C126.394 16.7395 125.995 15.9472 125.742 14.9516C125.379 13.525 125.515 12.3195 126.151 11.3351C126.786 10.3507 127.825 9.67508 129.266 9.30837C130.113 9.09288 130.853 9.04705 131.486 9.17087C132.115 9.27983 132.651 9.52305 133.095 9.90054C133.554 10.2742 133.941 10.7375 134.256 11.2903C134.567 11.8283 134.828 12.4185 135.038 13.061L132.355 14.2659C132.181 13.7088 131.986 13.2205 131.768 12.8012C131.566 12.3781 131.306 12.0724 130.989 11.884C130.687 11.6919 130.298 11.6563 129.823 11.7773C129.333 11.902 128.995 12.1619 128.811 12.5569C128.638 12.9332 128.612 13.3591 128.733 13.8346C128.888 14.4439 129.142 14.917 129.497 15.254C129.848 15.576 130.314 15.8846 130.896 16.1797L133.652 17.5908C134.553 18.0259 135.372 18.6008 136.108 19.3155C136.854 20.0115 137.379 20.954 137.681 22.1428C137.901 23.0047 137.902 23.8191 137.686 24.5861C137.484 25.3493 137.091 26.011 136.506 26.5713C135.932 27.1129 135.191 27.499 134.285 27.7296ZM142.492 25.6868L135.48 8.02428L138.445 7.48683L143.217 20.0155L143.129 6.63759L146.162 6.08783L145.796 25.0878L142.492 25.6868ZM148.706 24.5941L150.428 5.67332L154.041 5.28639L159.729 23.4138L156.596 23.7493L155.407 19.5511L152.182 19.8964L151.885 24.2537L148.706 24.5941ZM152.295 17.7099L154.81 17.4406L152.72 9.7997L152.295 17.7099ZM170.041 23.4535C168.922 23.4563 167.986 23.2441 167.233 22.8167C166.481 22.3739 165.912 21.7314 165.526 20.889C165.141 20.0467 164.924 19.0122 164.875 17.7857L167.794 17.2032C167.827 17.9238 167.913 18.5599 168.052 19.1115C168.207 19.6632 168.43 20.0919 168.722 20.3978C169.03 20.6884 169.429 20.833 169.919 20.8318C170.471 20.8304 170.862 20.6684 171.091 20.3458C171.32 20.0079 171.434 19.5859 171.433 19.0799C171.431 18.2673 171.245 17.6007 170.876 17.0803C170.506 16.5599 170.014 16.0399 169.4 15.5201L167.049 13.4561C166.388 12.8904 165.857 12.2631 165.457 11.5742C165.072 10.8698 164.878 10.004 164.875 8.97663C164.871 7.50463 165.298 6.36887 166.154 5.56935C167.011 4.76983 168.183 4.36816 169.67 4.36437C170.544 4.36213 171.273 4.49827 171.856 4.77279C172.44 5.03196 172.901 5.39879 173.239 5.87326C173.593 6.34769 173.855 6.89136 174.025 7.50426C174.196 8.10182 174.304 8.73788 174.352 9.41243L171.456 9.92583C171.423 9.34324 171.353 8.82209 171.245 8.36236C171.151 7.9026 170.974 7.54272 170.713 7.28272C170.467 7.02268 170.098 6.89328 169.608 6.89454C169.102 6.89583 168.711 7.06549 168.436 7.40353C168.176 7.72619 168.047 8.13286 168.048 8.62352C168.05 9.25219 168.181 9.77319 168.443 10.1865C168.705 10.5845 169.082 10.9976 169.573 11.4256L171.902 13.4667C172.67 14.1087 173.323 14.8661 173.862 15.7387C174.417 16.596 174.695 17.6379 174.698 18.8646C174.701 19.7539 174.503 20.5441 174.106 21.2351C173.725 21.9261 173.182 22.4718 172.478 22.8723C171.789 23.2574 170.976 23.4511 170.041 23.4535ZM177.648 23.3936L178.656 7.30221L175.695 7.11665L175.852 4.61455L185.125 5.1957L184.969 7.69779L182.053 7.5151L181.045 23.6065L177.648 23.3936ZM189.57 24.8483C188.263 24.6736 187.254 24.2913 186.544 23.7014C185.834 23.1115 185.372 22.3382 185.16 21.3816C184.948 20.4251 184.925 19.3236 185.091 18.0774L186.014 11.1698C186.181 9.92355 186.49 8.88202 186.942 8.04521C187.397 7.19321 188.043 6.58343 188.881 6.21587C189.719 5.84832 190.791 5.75189 192.098 5.92657C193.436 6.10531 194.453 6.48104 195.15 7.05374C195.862 7.62848 196.326 8.38654 196.54 9.32792C196.772 10.2561 196.804 11.3434 196.638 12.5896L195.712 19.52C195.547 20.7511 195.229 21.7992 194.758 22.6643C194.303 23.5163 193.655 24.1413 192.813 24.5393C191.988 24.9241 190.907 25.0271 189.57 24.8483ZM189.902 22.3634C190.464 22.4386 190.891 22.3718 191.182 22.1632C191.488 21.9566 191.715 21.6466 191.863 21.2332C192.011 20.8199 192.118 20.3624 192.185 19.8609L193.322 11.3575C193.391 10.8407 193.407 10.3711 193.371 9.94857C193.335 9.52603 193.195 9.1825 192.952 8.91796C192.726 8.64026 192.332 8.46383 191.769 8.38868C191.237 8.31759 190.818 8.38534 190.512 8.59195C190.208 8.78337 189.983 9.07815 189.837 9.47632C189.691 9.87448 189.584 10.3319 189.515 10.8487L188.378 19.3521C188.311 19.8536 188.287 20.3222 188.306 20.7579C188.341 21.1957 188.478 21.5544 188.719 21.8341C188.96 22.1139 189.355 22.2903 189.902 22.3634ZM196.498 25.6346L200.464 7.43164L202.779 7.93598L204.944 19.283L207.206 8.90061L209.948 9.49799L205.982 27.7009L203.779 27.221L201.7 15.3747L199.33 26.2515L196.498 25.6346ZM207.817 28.2032L213.07 10.3291L220.573 12.5341L219.899 14.8291L215.662 13.5839L214.151 18.7254L217.483 19.7047L216.815 21.9776L213.483 20.9983L211.745 26.9122L216.026 28.1703L215.364 30.4211L207.817 28.2032ZM225.002 34.3547C223.964 33.9356 223.177 33.3864 222.641 32.707C222.111 32.0134 221.826 31.2039 221.786 30.2783C221.747 29.3528 221.935 28.3127 222.352 27.158L225.276 27.7184C225.034 28.3981 224.874 29.0197 224.796 29.5833C224.731 30.1525 224.776 30.6339 224.932 31.0273C225.107 31.4123 225.422 31.6966 225.877 31.8803C226.389 32.0869 226.812 32.084 227.146 31.8715C227.485 31.6448 227.75 31.2969 227.939 30.8277C228.243 30.0741 228.323 29.3867 228.177 28.7655C228.03 28.1443 227.771 27.4772 227.397 26.7642L225.997 23.9665C225.598 23.1936 225.342 22.4126 225.231 21.6235C225.14 20.8259 225.286 19.9509 225.671 18.9982C226.222 17.6333 227.045 16.7418 228.14 16.3239C229.234 15.906 230.471 15.9755 231.85 16.5323C232.661 16.8595 233.285 17.2601 233.721 17.7342C234.164 18.194 234.453 18.7075 234.588 19.2745C234.737 19.8473 234.775 20.4497 234.702 21.0815C234.634 21.6992 234.495 22.3294 234.286 22.9723L231.409 22.3566C231.599 21.8048 231.73 21.2955 231.802 20.8288C231.889 20.3678 231.861 19.9677 231.717 19.6284C231.587 19.2948 231.294 19.0362 230.839 18.8525C230.37 18.6631 229.944 18.6731 229.562 18.8826C229.2 19.0836 228.927 19.4116 228.743 19.8666C228.508 20.4495 228.434 20.9817 228.52 21.4632C228.613 21.9305 228.806 22.455 229.1 23.0368L230.488 25.8046C230.958 26.6888 231.278 27.6365 231.448 28.6479C231.639 29.6508 231.504 30.7209 231.045 31.8584C230.712 32.6831 230.232 33.3407 229.604 33.8313C228.99 34.3276 228.282 34.6285 227.478 34.7342C226.695 34.8313 225.87 34.7048 225.002 34.3547ZM232.828 37.5625L237.625 19.1744L240.333 20.4951L236.768 33.4192L244.612 22.5821L247.382 23.9331L235.846 39.0344L232.828 37.5625ZM238.485 40.3581L251.06 26.1163L254.203 27.9406L248.073 45.9235L245.347 44.3416L246.87 40.2524L244.065 38.6243L241.25 41.9631L238.485 40.3581ZM245.449 36.9277L247.637 38.1978L250.469 30.7996L245.449 36.9277ZM256.363 52.0543C255.46 51.3936 254.831 50.6682 254.478 49.8782C254.134 49.0758 254.056 48.2211 254.245 47.314C254.433 46.407 254.871 45.4448 255.558 44.4275L258.255 45.6874C257.854 46.2873 257.547 46.8507 257.332 47.3777C257.13 47.9138 257.056 48.3916 257.111 48.8111C257.186 49.2273 257.422 49.5802 257.818 49.8698C258.264 50.1956 258.674 50.2965 259.05 50.1723C259.435 50.0357 259.776 49.7632 260.075 49.3548C260.555 48.6988 260.8 48.0517 260.811 47.4137C260.821 46.7756 260.733 46.0652 260.546 45.2823L259.874 42.2267C259.676 41.3796 259.62 40.5598 259.706 39.7675C259.813 38.9719 260.169 38.1595 260.776 37.3302C261.644 36.1419 262.661 35.4794 263.824 35.3426C264.988 35.2058 266.17 35.5763 267.371 36.4542C268.076 36.97 268.583 37.5113 268.89 38.078C269.207 38.6324 269.361 39.2009 269.353 39.7837C269.357 40.3756 269.246 40.9689 269.02 41.5635C268.803 42.1458 268.514 42.7228 268.153 43.2946L265.515 41.9925C265.834 41.5041 266.086 41.0425 266.271 40.6078C266.469 40.1822 266.539 39.7873 266.482 39.423C266.438 39.0678 266.218 38.7454 265.822 38.4557C265.414 38.1571 264.998 38.0625 264.576 38.1719C264.176 38.2779 263.831 38.529 263.541 38.9251C263.17 39.4326 262.968 39.9303 262.934 40.4184C262.909 40.894 262.968 41.45 263.11 42.0862L263.777 45.1097C264.016 46.082 264.094 47.0794 264.012 48.1016C263.95 49.1206 263.558 50.1252 262.834 51.1154C262.309 51.8333 261.682 52.3531 260.953 52.6747C260.236 53.0055 259.475 53.1236 258.671 53.0291C257.887 52.9313 257.118 52.6063 256.363 52.0543ZM262.525 56.5155L272.887 44.1632L270.614 42.2563L272.225 40.3356L279.344 46.3074L277.733 48.2281L275.495 46.3509L265.133 58.7032L262.525 56.5155ZM271.262 64.7568C270.313 63.8416 269.727 62.9361 269.505 62.0401C269.282 61.1441 269.369 60.2479 269.764 59.3514C270.16 58.4549 270.794 57.5541 271.667 56.6489L276.503 51.6315C277.376 50.7263 278.242 50.0706 279.102 49.6645C279.973 49.2473 280.855 49.139 281.748 49.3395C282.641 49.54 283.562 50.0978 284.511 51.013C285.483 51.9495 286.08 52.8549 286.302 53.7292C286.535 54.6141 286.459 55.4993 286.074 56.3848C285.71 57.2698 285.092 58.1649 284.22 59.0701L279.367 64.104C278.505 64.9982 277.628 65.6541 276.736 66.0717C275.865 66.4889 274.972 66.6082 274.058 66.4298C273.166 66.251 272.234 65.6933 271.262 64.7568ZM273.002 62.9519C273.411 63.3457 273.794 63.5447 274.152 63.549C274.521 63.5639 274.887 63.4487 275.252 63.2035C275.616 62.9582 275.973 62.6535 276.325 62.2892L282.279 56.1127C282.641 55.7374 282.932 55.3688 283.153 55.0069C283.374 54.645 283.465 54.2854 283.426 53.9283C283.409 53.5708 283.196 53.1951 282.787 52.8014C282.401 52.4289 282.023 52.2352 281.654 52.2203C281.296 52.1943 280.94 52.2985 280.586 52.5327C280.233 52.7669 279.875 53.0716 279.513 53.447L273.559 59.6234C273.208 59.9877 272.911 60.351 272.668 60.7133C272.437 61.0863 272.335 61.4568 272.363 61.825C272.392 62.1932 272.605 62.5688 273.002 62.9519ZM276.378 69.4957L290.359 57.1834L291.925 58.9613L286.945 69.3843L294.919 62.3617L296.774 64.4676L282.792 76.7799L281.303 75.0883L286.647 64.3136L278.293 71.6706L276.378 69.4957ZM283.976 78.2702L298.772 66.9491L303.524 73.1596L301.624 74.6132L298.94 71.1061L294.684 74.3627L296.795 77.1208L294.913 78.5604L292.803 75.8023L287.908 79.548L290.619 83.0916L288.756 84.5173L283.976 78.2702ZM294.207 93.3864C293.617 92.4355 293.306 91.5277 293.274 90.6629C293.255 89.7901 293.503 88.9683 294.017 88.1977C294.531 87.4272 295.297 86.6987 296.315 86.0124L298.345 88.1904C297.749 88.5967 297.253 89.0041 296.856 89.4125C296.468 89.834 296.221 90.2494 296.114 90.6587C296.029 91.0729 296.115 91.4884 296.374 91.9053C296.665 92.3742 297.008 92.6214 297.403 92.6469C297.811 92.6643 298.23 92.5395 298.66 92.2725C299.35 91.8437 299.82 91.3355 300.068 90.7478C300.317 90.1601 300.501 89.4683 300.62 88.6722L301.141 85.5871C301.275 84.7277 301.53 83.9466 301.906 83.2439C302.303 82.5461 302.937 81.9262 303.81 81.3842C305.061 80.6075 306.251 80.3736 307.381 80.6823C308.512 80.991 309.469 81.7771 310.254 83.0406C310.715 83.783 310.982 84.4746 311.055 85.1151C311.141 85.7476 311.071 86.3326 310.846 86.8699C310.628 87.4203 310.303 87.9289 309.871 88.3958C309.452 88.8546 308.968 89.2815 308.419 89.6766L306.46 87.4817C306.939 87.1483 307.346 86.8146 307.68 86.4807C308.022 86.1599 308.235 85.8199 308.319 85.461C308.411 85.115 308.327 84.7337 308.068 84.3168C307.802 83.887 307.452 83.6439 307.02 83.5874C306.609 83.5358 306.195 83.6395 305.778 83.8984C305.244 84.2301 304.87 84.6159 304.656 85.0557C304.455 85.4875 304.301 86.0251 304.195 86.6684L303.682 89.7218C303.539 90.7128 303.238 91.6669 302.779 92.5839C302.341 93.5059 301.601 94.2905 300.559 94.9377C299.803 95.4069 299.027 95.6542 298.231 95.6796C297.443 95.718 296.693 95.5428 295.982 95.154C295.292 94.7701 294.701 94.1809 294.207 93.3864ZM298.631 100.595L313.357 88.5835L314.764 91.2482L304.257 99.5762L316.986 95.4587L318.425 98.1843L300.199 103.565L298.631 100.595ZM301.547 106.191L320.106 102.123L321.565 105.451L305.999 116.344L304.733 113.458L308.377 111.057L307.075 108.087L302.831 109.119L301.547 106.191ZM309.193 107.535L310.209 109.852L316.863 105.554L309.193 107.535ZM309.05 126.195C308.712 125.128 308.634 124.171 308.816 123.325C309.013 122.475 309.456 121.739 310.144 121.119C310.832 120.499 311.754 119.982 312.909 119.567L314.34 122.178C313.662 122.425 313.081 122.698 312.596 122.996C312.117 123.309 311.774 123.651 311.57 124.021C311.385 124.401 311.367 124.825 311.515 125.293C311.682 125.819 311.953 126.143 312.33 126.265C312.721 126.383 313.157 126.365 313.64 126.212C314.415 125.966 314.995 125.589 315.381 125.081C315.766 124.573 316.115 123.948 316.427 123.205L317.691 120.344C318.033 119.544 318.472 118.85 319.01 118.261C319.566 117.682 320.334 117.238 321.313 116.928C322.717 116.483 323.928 116.549 324.947 117.127C325.967 117.705 326.701 118.702 327.151 120.12C327.415 120.953 327.503 121.689 327.416 122.328C327.344 122.962 327.132 123.512 326.781 123.977C326.434 124.457 325.994 124.87 325.46 125.216C324.941 125.558 324.367 125.852 323.738 126.1L322.38 123.49C322.926 123.285 323.402 123.062 323.808 122.82C324.219 122.594 324.509 122.317 324.679 121.989C324.853 121.677 324.866 121.287 324.718 120.819C324.565 120.336 324.286 120.015 323.881 119.853C323.496 119.702 323.069 119.701 322.601 119.849C322.002 120.039 321.544 120.321 321.228 120.694C320.927 121.063 320.646 121.546 320.385 122.144L319.136 124.977C318.753 125.902 318.227 126.753 317.556 127.528C316.904 128.314 315.993 128.892 314.824 129.263C313.976 129.531 313.163 129.58 312.385 129.408C311.611 129.252 310.928 128.897 310.335 128.345C309.761 127.803 309.333 127.086 309.05 126.195ZM311.382 133.435L327.042 129.599L326.336 126.717L328.771 126.121L330.982 135.146L328.547 135.742L327.852 132.905L312.192 136.741L311.382 133.435ZM313.546 145.249C313.323 143.949 313.388 142.872 313.74 142.019C314.091 141.165 314.692 140.495 315.542 140.007C316.392 139.519 317.437 139.169 318.676 138.957L325.545 137.782C326.784 137.57 327.871 137.555 328.804 137.738C329.753 137.918 330.527 138.353 331.128 139.044C331.728 139.734 332.14 140.729 332.362 142.029C332.59 143.359 332.534 144.442 332.195 145.278C331.858 146.129 331.272 146.797 330.437 147.282C329.62 147.78 328.592 148.134 327.353 148.346L320.461 149.526C319.237 149.735 318.142 149.744 317.175 149.551C316.227 149.371 315.437 148.939 314.806 148.253C314.193 147.58 313.773 146.579 313.546 145.249ZM316.017 144.826C316.112 145.385 316.303 145.773 316.589 145.988C316.877 146.219 317.241 146.343 317.679 146.362C318.118 146.38 318.587 146.346 319.086 146.261L327.542 144.814C328.056 144.726 328.509 144.602 328.901 144.441C329.294 144.281 329.58 144.045 329.76 143.734C329.958 143.436 330.009 143.007 329.914 142.448C329.823 141.919 329.634 141.539 329.345 141.309C329.072 141.075 328.724 140.948 328.3 140.927C327.877 140.907 327.408 140.94 326.894 141.028L318.438 142.475C317.939 142.56 317.485 142.677 317.074 142.825C316.667 142.988 316.365 143.226 316.17 143.54C315.975 143.853 315.924 144.282 316.017 144.826ZM314.858 152.097L333.416 150.46L333.624 152.82L323.438 158.267L334.023 157.333L334.269 160.129L315.711 161.766L315.513 159.52L326.202 154.006L315.113 154.984L314.858 152.097ZM315.78 163.668L334.407 163.336L334.547 171.155L332.155 171.197L332.076 166.782L326.718 166.878L326.78 170.35L324.411 170.392L324.35 166.92L318.186 167.029L318.266 171.491L315.92 171.533L315.78 163.668ZM315.066 181.908C315.153 180.792 315.439 179.876 315.925 179.16C316.427 178.446 317.113 177.93 317.983 177.613C318.854 177.296 319.902 177.162 321.129 177.211L321.476 180.168C320.755 180.143 320.114 180.178 319.553 180.273C318.991 180.383 318.545 180.571 318.217 180.838C317.903 181.121 317.727 181.507 317.689 181.996C317.646 182.547 317.776 182.949 318.079 183.203C318.398 183.459 318.809 183.606 319.314 183.645C320.124 183.708 320.803 183.576 321.352 183.25C321.9 182.923 322.458 182.474 323.025 181.903L325.271 179.725C325.887 179.111 326.555 178.633 327.274 178.289C328.007 177.961 328.885 177.837 329.91 177.917C331.377 178.031 332.475 178.547 333.204 179.465C333.932 180.382 334.239 181.583 334.123 183.066C334.056 183.937 333.862 184.652 333.541 185.212C333.236 185.773 332.834 186.203 332.334 186.502C331.833 186.817 331.27 187.035 330.645 187.155C330.036 187.277 329.393 187.335 328.717 187.329L328.437 184.4C329.02 184.415 329.545 184.386 330.012 184.315C330.478 184.259 330.851 184.111 331.131 183.871C331.41 183.647 331.568 183.29 331.606 182.801C331.646 182.296 331.508 181.893 331.193 181.592C330.892 181.307 330.497 181.146 330.008 181.108C329.381 181.059 328.851 181.149 328.418 181.377C328 181.606 327.559 181.948 327.092 182.404L324.872 184.561C324.17 185.276 323.363 185.867 322.45 186.334C321.551 186.818 320.49 187.012 319.267 186.917C318.381 186.848 317.609 186.589 316.952 186.138C316.294 185.702 315.793 185.117 315.45 184.383C315.121 183.665 314.993 182.84 315.066 181.908ZM314.37 190.337L333.348 189.348L332.908 192.329L319.511 192.839L332.213 197.039L331.763 200.088L313.88 193.659L314.37 190.337ZM313.416 196.574L330.785 204.272L329.993 207.819L310.999 207.394L311.686 204.318L316.044 204.538L316.751 201.373L312.719 199.694L313.416 196.574ZM318.786 202.181L318.234 204.65L326.142 205.12L318.786 202.181ZM307.64 217.143C307.998 216.082 308.501 215.265 309.148 214.69C309.81 214.121 310.602 213.79 311.523 213.697C312.445 213.604 313.494 213.732 314.671 214.081L314.281 217.032C313.588 216.83 312.958 216.707 312.391 216.661C311.819 216.629 311.341 216.702 310.957 216.88C310.583 217.077 310.317 217.408 310.16 217.873C309.984 218.396 310.011 218.818 310.242 219.139C310.488 219.465 310.851 219.709 311.33 219.871C312.1 220.131 312.791 220.17 313.403 219.989C314.014 219.807 314.665 219.509 315.356 219.095L318.068 217.535C318.816 217.092 319.581 216.792 320.363 216.636C321.154 216.498 322.036 216.594 323.009 216.923C324.404 217.394 325.341 218.164 325.821 219.233C326.302 220.302 326.304 221.541 325.828 222.95C325.548 223.778 325.184 224.424 324.736 224.887C324.302 225.356 323.806 225.674 323.248 225.841C322.685 226.023 322.086 226.096 321.451 226.059C320.83 226.027 320.193 225.925 319.539 225.753L319.988 222.845C320.549 223.003 321.065 223.105 321.536 223.15C322.001 223.21 322.399 223.159 322.729 222.995C323.055 222.846 323.296 222.539 323.453 222.074C323.615 221.595 323.58 221.171 323.349 220.801C323.128 220.451 322.784 220.198 322.32 220.04C321.724 219.839 321.188 219.796 320.713 219.91C320.252 220.029 319.739 220.253 319.175 220.58L316.492 222.125C315.637 222.645 314.709 223.02 313.709 223.248C312.719 223.496 311.643 223.424 310.481 223.031C309.638 222.747 308.954 222.305 308.428 221.706C307.897 221.122 307.556 220.432 307.404 219.636C307.261 218.86 307.34 218.029 307.64 217.143ZM305.241 224.361L320.145 230.512L321.277 227.769L323.594 228.725L320.05 237.315L317.732 236.358L318.847 233.658L303.943 227.508L305.241 224.361ZM300 235.166C300.59 233.987 301.28 233.158 302.069 232.679C302.858 232.199 303.739 232.015 304.713 232.125C305.686 232.236 306.735 232.572 307.86 233.135L314.091 236.256C315.215 236.819 316.099 237.451 316.743 238.151C317.401 238.858 317.767 239.667 317.842 240.579C317.917 241.491 317.659 242.537 317.068 243.716C316.464 244.922 315.778 245.762 315.009 246.234C314.234 246.721 313.367 246.912 312.407 246.809C311.453 246.726 310.415 246.403 309.291 245.839L303.039 242.708C301.929 242.152 301.041 241.51 300.376 240.783C299.718 240.076 299.338 239.26 299.236 238.334C299.141 237.429 299.395 236.373 300 235.166ZM302.241 236.289C301.987 236.796 301.911 237.222 302.014 237.565C302.11 237.921 302.329 238.237 302.672 238.511C303.014 238.786 303.412 239.036 303.864 239.263L311.535 243.105C312.001 243.338 312.44 243.507 312.851 243.61C313.262 243.713 313.633 243.693 313.962 243.549C314.298 243.426 314.593 243.111 314.847 242.603C315.088 242.123 315.16 241.705 315.064 241.349C314.982 240.999 314.777 240.69 314.448 240.422C314.119 240.155 313.721 239.904 313.255 239.671L305.584 235.829C305.132 235.602 304.697 235.427 304.278 235.303C303.853 235.193 303.469 235.207 303.126 235.344C302.783 235.48 302.488 235.796 302.241 236.289ZM297.003 241.463L312.935 251.119L311.707 253.145L300.271 251.512L309.358 257.02L307.904 259.42L291.972 249.763L293.14 247.836L305.02 249.711L295.501 243.941L297.003 241.463ZM290.904 251.338L306.129 262.075L301.622 268.465L299.667 267.087L302.212 263.478L297.833 260.39L295.831 263.228L293.895 261.862L295.897 259.024L290.859 255.472L288.288 259.118L286.37 257.766L290.904 251.338ZM279.527 265.612C280.258 264.764 281.032 264.196 281.848 263.908C282.675 263.63 283.533 263.621 284.422 263.882C285.311 264.142 286.235 264.656 287.194 265.423L285.721 268.01C285.155 267.562 284.618 267.21 284.11 266.954C283.592 266.71 283.122 266.598 282.699 266.618C282.279 266.66 281.908 266.866 281.587 267.238C281.227 267.656 281.093 268.057 281.187 268.441C281.292 268.836 281.536 269.198 281.919 269.529C282.534 270.06 283.159 270.356 283.795 270.418C284.43 270.48 285.145 270.449 285.94 270.326L289.04 269.902C289.9 269.773 290.722 269.783 291.505 269.932C292.289 270.103 293.07 270.524 293.848 271.195C294.963 272.157 295.541 273.223 295.584 274.394C295.627 275.565 295.162 276.714 294.19 277.84C293.619 278.501 293.039 278.963 292.45 279.223C291.871 279.494 291.292 279.602 290.712 279.547C290.122 279.503 289.539 279.345 288.965 279.072C288.402 278.809 287.85 278.475 287.309 278.069L288.819 275.544C289.281 275.902 289.72 276.19 290.139 276.409C290.547 276.64 290.935 276.742 291.303 276.715C291.66 276.699 291.999 276.506 292.32 276.134C292.651 275.751 292.778 275.345 292.703 274.916C292.63 274.508 292.407 274.144 292.036 273.823C291.56 273.413 291.08 273.171 290.596 273.098C290.124 273.035 289.565 273.049 288.92 273.14L285.852 273.561C284.864 273.721 283.863 273.718 282.851 273.554C281.84 273.41 280.871 272.938 279.942 272.137C279.269 271.556 278.801 270.889 278.539 270.136C278.267 269.395 278.211 268.628 278.37 267.833C278.53 267.06 278.916 266.32 279.527 265.612ZM273.97 271.988L289.84 282.443L287.718 284.583L276.627 277.051L284.366 287.963L282.196 290.152L271.606 274.373L273.97 271.988ZM269.504 276.446L278.943 292.934L276.205 295.323L261.15 283.733L263.525 281.662L266.907 284.419L269.351 282.287L267.095 278.547L269.504 276.446ZM270.512 284.143L268.605 285.806L274.699 290.868L270.512 284.143ZM252.68 289.614C253.596 288.97 254.485 288.608 255.346 288.528C256.217 288.46 257.051 288.66 257.85 289.13C258.648 289.6 259.419 290.323 260.162 291.301L258.102 293.45C257.663 292.878 257.228 292.406 256.798 292.034C256.355 291.67 255.926 291.447 255.511 291.363C255.093 291.301 254.683 291.411 254.282 291.693C253.83 292.01 253.603 292.367 253.599 292.763C253.605 293.171 253.753 293.582 254.044 293.996C254.511 294.661 255.045 295.101 255.646 295.316C256.247 295.531 256.948 295.676 257.75 295.75L260.859 296.095C261.725 296.18 262.519 296.39 263.242 296.726C263.961 297.082 264.616 297.681 265.207 298.522C266.053 299.726 266.354 300.902 266.11 302.048C265.865 303.194 265.135 304.194 263.918 305.049C263.202 305.552 262.527 305.857 261.892 305.966C261.265 306.088 260.677 306.051 260.128 305.856C259.566 305.67 259.04 305.375 258.549 304.97C258.068 304.577 257.614 304.118 257.188 303.593L259.269 301.513C259.629 301.972 259.985 302.359 260.337 302.673C260.677 302.997 261.028 303.19 261.392 303.254C261.742 303.326 262.118 303.221 262.52 302.939C262.934 302.648 263.157 302.286 263.189 301.851C263.217 301.438 263.09 301.03 262.808 300.629C262.446 300.114 262.04 299.763 261.589 299.574C261.146 299.397 260.601 299.275 259.953 299.205L256.875 298.866C255.878 298.779 254.908 298.533 253.967 298.126C253.021 297.741 252.196 297.047 251.491 296.043C250.98 295.315 250.689 294.554 250.618 293.761C250.535 292.976 250.668 292.217 251.016 291.486C251.36 290.775 251.915 290.151 252.68 289.614ZM246.478 294.019L254.863 307.79L257.398 306.247L258.701 308.388L250.765 313.22L249.461 311.079L251.956 309.56L243.571 295.789L246.478 294.019ZM235.866 299.642C237.039 299.039 238.085 298.776 239.005 298.855C239.925 298.933 240.745 299.305 241.466 299.968C242.187 300.632 242.835 301.523 243.41 302.641L246.598 308.838C247.173 309.956 247.514 310.988 247.621 311.933C247.735 312.892 247.553 313.761 247.075 314.542C246.597 315.322 245.772 316.014 244.599 316.617C243.399 317.235 242.35 317.507 241.45 317.435C240.538 317.37 239.724 317.013 239.01 316.363C238.29 315.733 237.642 314.859 237.067 313.741L233.869 307.524C233.3 306.419 232.963 305.377 232.856 304.398C232.742 303.439 232.917 302.556 233.381 301.748C233.838 300.961 234.666 300.259 235.866 299.642ZM237.013 301.871C236.509 302.131 236.197 302.429 236.077 302.766C235.944 303.111 235.935 303.495 236.049 303.919C236.164 304.343 236.337 304.78 236.568 305.23L240.493 312.858C240.731 313.322 240.986 313.717 241.257 314.043C241.528 314.369 241.839 314.571 242.19 314.649C242.534 314.748 242.958 314.668 243.463 314.408C243.94 314.163 244.245 313.868 244.378 313.524C244.519 313.193 244.535 312.822 244.427 312.412C244.32 312.002 244.147 311.565 243.908 311.101L239.984 303.473C239.752 303.023 239.504 302.624 239.24 302.278C238.962 301.938 238.644 301.722 238.286 301.63C237.928 301.538 237.504 301.619 237.013 301.871ZM229.731 302.956L236.894 320.153L234.707 321.064L226.439 312.997L230.525 322.806L227.934 323.885L220.771 306.688L222.852 305.821L231.336 314.346L227.056 304.07L229.731 302.956ZM218.978 307.325L224.892 324.992L217.477 327.474L216.717 325.206L220.905 323.804L219.204 318.722L215.911 319.825L215.158 317.578L218.452 316.476L216.495 310.631L212.264 312.047L211.519 309.822L218.978 307.325ZM201.362 312.102C202.453 311.852 203.412 311.852 204.241 312.103C205.072 312.368 205.769 312.869 206.331 313.606C206.893 314.342 207.333 315.303 207.652 316.489L204.933 317.701C204.742 317.006 204.518 316.404 204.26 315.897C203.988 315.393 203.675 315.024 203.323 314.791C202.959 314.575 202.537 314.522 202.059 314.632C201.521 314.755 201.176 314.999 201.024 315.364C200.875 315.745 200.857 316.181 200.97 316.674C201.151 317.467 201.48 318.076 201.955 318.502C202.43 318.928 203.024 319.326 203.739 319.698L206.488 321.191C207.257 321.597 207.913 322.092 208.456 322.676C208.987 323.277 209.367 324.079 209.597 325.081C209.925 326.515 209.76 327.717 209.101 328.686C208.442 329.655 207.388 330.306 205.938 330.638C205.086 330.833 204.345 330.861 203.716 330.722C203.09 330.598 202.559 330.342 202.124 329.954C201.674 329.569 201.298 329.097 200.997 328.537C200.699 327.992 200.453 327.395 200.257 326.748L202.969 325.608C203.129 326.169 203.313 326.662 203.52 327.086C203.712 327.514 203.965 327.826 204.277 328.022C204.574 328.221 204.962 328.266 205.44 328.156C205.934 328.043 206.277 327.791 206.471 327.401C206.653 327.029 206.689 326.604 206.58 326.125C206.439 325.513 206.196 325.034 205.849 324.688C205.506 324.358 205.048 324.038 204.473 323.729L201.752 322.253C200.861 321.796 200.056 321.202 199.338 320.47C198.608 319.756 198.106 318.801 197.833 317.605C197.634 316.739 197.652 315.924 197.886 315.163C198.106 314.405 198.515 313.752 199.114 313.206C199.701 312.679 200.45 312.31 201.362 312.102ZM193.108 313.948L199.698 331.772L196.722 332.239L192.248 319.6L192.018 332.977L188.973 333.454L189.791 314.468L193.108 313.948ZM186.869 314.893L184.701 333.767L181.079 334.069L175.822 315.812L178.962 315.55L180.052 319.776L183.284 319.507L183.683 315.158L186.869 314.893ZM183.119 321.69L180.598 321.9L182.507 329.588L183.119 321.69ZM165.513 315.53C166.633 315.553 167.563 315.787 168.305 316.231C169.047 316.692 169.601 317.347 169.967 318.198C170.333 319.049 170.526 320.089 170.547 321.316L167.614 321.83C167.599 321.109 167.528 320.471 167.401 319.917C167.259 319.361 167.046 318.928 166.761 318.615C166.46 318.317 166.065 318.163 165.574 318.153C165.022 318.142 164.628 318.295 164.391 318.612C164.154 318.944 164.031 319.364 164.02 319.87C164.003 320.682 164.174 321.353 164.531 321.882C164.888 322.41 165.368 322.942 165.97 323.476L168.273 325.594C168.92 326.175 169.436 326.814 169.82 327.512C170.189 328.225 170.363 329.095 170.341 330.123C170.311 331.594 169.858 332.72 168.983 333.499C168.108 334.279 166.927 334.653 165.44 334.622C164.566 334.604 163.841 334.451 163.264 334.163C162.687 333.89 162.235 333.513 161.907 333.031C161.565 332.548 161.315 331.998 161.159 331.382C161.003 330.78 160.909 330.142 160.877 329.467L163.785 329.021C163.803 329.604 163.862 330.126 163.959 330.589C164.042 331.05 164.211 331.414 164.466 331.68C164.706 331.946 165.071 332.084 165.561 332.094C166.067 332.105 166.462 331.944 166.745 331.612C167.012 331.296 167.151 330.892 167.161 330.402C167.174 329.773 167.054 329.249 166.802 328.83C166.55 328.426 166.183 328.004 165.701 327.565L163.421 325.47C162.668 324.811 162.032 324.038 161.514 323.153C160.98 322.283 160.725 321.235 160.751 320.009C160.769 319.12 160.985 318.334 161.398 317.653C161.795 316.971 162.351 316.438 163.064 316.054C163.762 315.685 164.578 315.51 165.513 315.53ZM157.908 315.41L156.515 331.473L159.471 331.729L159.254 334.227L149.997 333.424L150.214 330.927L153.124 331.179L154.516 315.116L157.908 315.41ZM146.024 313.671C147.326 313.877 148.326 314.283 149.021 314.89C149.717 315.497 150.16 316.281 150.349 317.242C150.539 318.203 150.535 319.305 150.339 320.547L149.251 327.431C149.054 328.672 148.72 329.706 148.248 330.532C147.774 331.373 147.113 331.967 146.267 332.314C145.42 332.662 144.345 332.733 143.043 332.527C141.71 332.316 140.702 331.916 140.019 331.327C139.321 330.735 138.876 329.966 138.684 329.02C138.474 328.086 138.468 326.999 138.664 325.757L139.756 318.851C139.95 317.624 140.293 316.584 140.785 315.73C141.26 314.889 141.922 314.28 142.774 313.902C143.608 313.537 144.691 313.46 146.024 313.671ZM145.632 316.147C145.072 316.059 144.644 316.115 144.348 316.317C144.037 316.516 143.803 316.82 143.645 317.23C143.487 317.64 143.369 318.094 143.29 318.594L141.95 327.068C141.868 327.583 141.841 328.052 141.867 328.475C141.893 328.899 142.025 329.245 142.261 329.516C142.481 329.799 142.87 329.985 143.431 330.073C143.961 330.157 144.381 330.099 144.692 329.9C145.001 329.716 145.233 329.427 145.388 329.032C145.544 328.637 145.662 328.183 145.744 327.668L147.083 319.194C147.162 318.694 147.198 318.226 147.189 317.79C147.165 317.352 147.036 316.99 146.802 316.705C146.567 316.419 146.178 316.233 145.632 316.147ZM139.116 312.719L134.719 330.823L132.417 330.264L130.522 318.869L128.014 329.194L125.287 328.532L129.684 310.428L131.875 310.96L133.673 322.853L136.3 312.035L139.116 312.719ZM127.861 309.882L122.178 327.624L114.731 325.238L115.46 322.96L119.666 324.308L121.301 319.204L117.993 318.145L118.716 315.888L122.023 316.948L123.904 311.078L119.655 309.717L120.37 307.482L127.861 309.882ZM110.83 303.318C111.857 303.762 112.631 304.33 113.15 305.022C113.664 305.728 113.929 306.544 113.947 307.471C113.964 308.397 113.751 309.432 113.307 310.576L110.397 309.946C110.655 309.272 110.83 308.655 110.922 308.093C111 307.526 110.966 307.044 110.82 306.647C110.654 306.257 110.346 305.966 109.896 305.771C109.389 305.552 108.966 305.545 108.627 305.75C108.282 305.968 108.01 306.31 107.809 306.774C107.487 307.52 107.391 308.205 107.522 308.83C107.654 309.454 107.897 310.128 108.254 310.849L109.587 313.68C109.967 314.462 110.204 315.249 110.296 316.04C110.368 316.84 110.201 317.711 109.794 318.654C109.21 320.006 108.366 320.877 107.262 321.269C106.157 321.66 104.922 321.561 103.557 320.972C102.754 320.625 102.14 320.21 101.715 319.725C101.283 319.255 101.007 318.735 100.886 318.165C100.75 317.589 100.727 316.985 100.815 316.356C100.897 315.74 101.051 315.113 101.276 314.475L104.138 315.16C103.935 315.707 103.791 316.213 103.708 316.678C103.61 317.136 103.629 317.537 103.765 317.88C103.887 318.216 104.173 318.482 104.623 318.676C105.088 318.877 105.513 318.877 105.901 318.677C106.268 318.485 106.548 318.163 106.743 317.713C106.992 317.136 107.079 316.605 107.004 316.122C106.923 315.653 106.742 315.124 106.462 314.535L105.141 311.735C104.692 310.84 104.395 309.884 104.249 308.869C104.082 307.862 104.242 306.795 104.729 305.669C105.081 304.853 105.577 304.207 106.217 303.732C106.842 303.25 107.558 302.966 108.363 302.88C109.149 302.801 109.971 302.948 110.83 303.318ZM103.083 299.924L97.8479 318.193L95.1721 316.808L99.0449 303.972L90.944 314.619L88.2069 313.202L100.1 298.381L103.083 299.924ZM97.4944 296.994L84.5833 310.932L81.4848 309.034L88.042 291.202L90.7287 292.848L89.109 296.9L91.8741 298.595L94.7685 295.324L97.4944 296.994ZM90.4503 300.258L88.2931 298.936L85.2858 306.264L90.4503 300.258ZM79.899 284.876C80.7867 285.558 81.3976 286.298 81.7318 287.097C82.0567 287.907 82.1142 288.763 81.9044 289.666C81.6946 290.568 81.2343 291.519 80.5234 292.52L77.8568 291.197C78.2715 290.606 78.5923 290.05 78.8192 289.529C79.0339 288.997 79.1192 288.522 79.075 288.101C79.0093 287.683 78.7819 287.325 78.3928 287.026C77.9551 286.689 77.5469 286.579 77.1684 286.694C76.7805 286.821 76.4324 287.086 76.1241 287.487C75.629 288.131 75.3686 288.772 75.3428 289.41C75.317 290.048 75.3884 290.76 75.5572 291.547L76.1564 294.618C76.3336 295.469 76.3701 296.29 76.2659 297.08C76.1401 297.873 75.7643 298.677 75.1384 299.492C74.2416 300.659 73.2099 301.297 72.0432 301.406C70.8765 301.515 69.7035 301.117 68.524 300.211C67.831 299.678 67.3375 299.125 67.0436 298.551C66.7403 297.99 66.5998 297.418 66.6219 296.835C66.6318 296.243 66.7567 295.653 66.9966 295.064C67.2272 294.487 67.5298 293.917 67.9043 293.354L70.5107 294.718C70.18 295.199 69.9171 295.654 69.722 296.084C69.5147 296.505 69.435 296.898 69.4829 297.264C69.5186 297.62 69.731 297.948 70.1201 298.247C70.5214 298.555 70.9342 298.659 71.3586 298.56C71.7614 298.463 72.1124 298.221 72.4113 297.831C72.7943 297.333 73.0086 296.84 73.0541 296.353C73.0903 295.878 73.0446 295.321 72.9171 294.682L72.3221 291.643C72.1064 290.665 72.0521 289.666 72.159 288.646C72.2444 287.629 72.6608 286.634 73.4081 285.661C73.9499 284.956 74.5891 284.451 75.3256 284.147C76.0499 283.834 76.8132 283.734 77.6154 283.847C78.3961 283.963 79.1573 284.307 79.899 284.876ZM73.8453 280.27L63.193 292.373L65.4202 294.333L63.7638 296.215L56.7887 290.076L58.4451 288.194L60.6377 290.124L71.29 278.021L73.8453 280.27ZM65.3056 271.824C66.233 272.761 66.7973 273.681 66.9985 274.582C67.1996 275.483 67.0918 276.377 66.675 277.263C66.2583 278.15 65.6029 279.036 64.7091 279.92L59.7549 284.821C58.861 285.706 57.9794 286.341 57.1099 286.726C56.2295 287.123 55.3454 287.21 54.4575 286.988C53.5696 286.767 52.662 286.187 51.7346 285.25C50.7856 284.291 50.2105 283.371 50.0092 282.492C49.7971 281.602 49.894 280.719 50.2999 279.843C50.6841 278.966 51.3231 278.086 52.2169 277.202L57.1875 272.284C58.0705 271.411 58.963 270.776 59.865 270.38C60.7454 269.983 61.6404 269.885 62.5501 270.085C63.4381 270.285 64.3566 270.865 65.3056 271.824ZM63.5234 273.587C63.1244 273.184 62.746 272.976 62.3883 272.963C62.0198 272.939 61.6505 273.046 61.2806 273.282C60.9107 273.519 60.5459 273.815 60.1862 274.171L54.0874 280.204C53.7168 280.571 53.4167 280.933 53.1871 281.289C52.9574 281.646 52.8579 282.003 52.8885 282.361C52.8975 282.719 53.1014 283.1 53.5004 283.503C53.8779 283.884 54.2508 284.087 54.6194 284.111C54.977 284.145 55.3353 284.049 55.6943 283.824C56.0533 283.598 56.4181 283.302 56.7888 282.935L62.8875 276.901C63.2473 276.546 63.5528 276.189 63.804 275.833C64.0446 275.466 64.155 275.098 64.1353 274.729C64.1156 274.36 63.9116 273.98 63.5234 273.587ZM60.3038 266.965L46.0348 278.943L44.5117 277.129L49.7371 266.826L41.5985 273.658L39.7944 271.509L54.0634 259.531L55.5126 261.257L49.9144 271.903L58.4406 264.745L60.3038 266.965ZM52.9155 258.013L37.8549 268.979L33.2519 262.657L35.1856 261.249L37.7849 264.819L42.1172 261.665L40.0729 258.857L41.988 257.463L44.0323 260.271L49.0153 256.642L46.3889 253.035L48.2854 251.654L52.9155 258.013ZM43.0462 242.658C43.614 243.623 43.9034 244.538 43.9145 245.403C43.9124 246.276 43.6452 247.092 43.1128 247.85C42.5805 248.608 41.7974 249.318 40.7636 249.98L38.7864 247.754C39.3919 247.362 39.8975 246.967 40.3033 246.568C40.7012 246.156 40.9584 245.746 41.0749 245.34C41.1705 244.928 41.0938 244.51 40.8449 244.087C40.5649 243.612 40.2278 243.356 39.8336 243.321C39.4263 243.294 39.0045 243.409 38.5685 243.666C37.8681 244.078 37.3866 244.575 37.124 245.156C36.8614 245.738 36.661 246.425 36.5228 247.218L35.9288 250.29C35.7743 251.146 35.5009 251.921 35.1084 252.614C34.695 253.303 34.0456 253.907 33.1603 254.428C31.8917 255.175 30.6961 255.38 29.5734 255.045C28.4507 254.709 27.5121 253.901 26.7577 252.619C26.3143 251.866 26.0638 251.168 26.0061 250.526C25.9352 249.891 26.0191 249.308 26.2576 248.777C26.4883 248.232 26.8252 247.731 27.2683 247.274C27.6981 246.826 28.192 246.41 28.7501 246.028L30.6562 248.269C30.1696 248.591 29.7553 248.915 29.4133 249.241C29.0635 249.554 28.8424 249.888 28.75 250.245C28.6498 250.589 28.7242 250.972 28.973 251.395C29.2297 251.831 29.5734 252.083 30.0041 252.149C30.4138 252.211 30.8301 252.117 31.253 251.868C31.7948 251.549 32.1779 251.172 32.4025 250.738C32.6139 250.311 32.7801 249.777 32.9012 249.136L33.487 246.096C33.6531 245.109 33.9767 244.162 34.4577 243.256C34.9177 242.345 35.6763 241.578 36.7334 240.956C37.4999 240.505 38.2815 240.276 39.0784 240.27C39.8675 240.25 40.6127 240.443 41.314 240.849C41.9944 241.249 42.5718 241.852 43.0462 242.658ZM38.7959 235.346L23.7856 247L22.4436 244.302L33.1471 236.229L20.3231 240.04L18.9504 237.28L37.3003 232.339L38.7959 235.346ZM36.0151 229.681L17.3651 233.306L15.9857 229.944L31.8069 219.425L33.003 222.34L29.3033 224.654L30.5343 227.654L34.8015 226.724L36.0151 229.681ZM28.4032 228.155L27.4428 225.815L20.6883 229.954L28.4032 228.155ZM28.9933 209.504C29.3058 210.579 29.3608 211.537 29.1583 212.378C28.9411 213.224 28.4811 213.948 27.7783 214.552C27.0755 215.155 26.1416 215.65 24.9766 216.037L23.6089 213.393C24.2924 213.162 24.8799 212.903 25.3714 212.617C25.8586 212.315 26.2088 211.982 26.4219 211.617C26.6161 211.241 26.6446 210.817 26.5076 210.346C26.3535 209.816 26.0898 209.486 25.7164 209.355C25.3282 209.228 24.8912 209.235 24.4053 209.377C23.625 209.604 23.0359 209.966 22.638 210.465C22.2402 210.964 21.8766 211.581 21.5472 212.315L20.2145 215.146C19.8538 215.938 19.3978 216.621 18.8466 217.197C18.2763 217.762 17.4979 218.188 16.5115 218.474C15.098 218.885 13.8886 218.79 12.8832 218.188C11.8779 217.586 11.1675 216.571 10.7523 215.143C10.5083 214.304 10.4374 213.566 10.5398 212.929C10.6274 212.297 10.8524 211.752 11.2146 211.296C11.5726 210.824 12.0225 210.422 12.5643 210.089C13.0915 209.76 13.6725 209.479 14.3075 209.247L15.6025 211.888C15.0516 212.08 14.5702 212.292 14.1585 212.524C13.7425 212.74 13.4457 213.01 13.2682 213.333C13.0864 213.642 13.064 214.032 13.201 214.503C13.3422 214.989 13.6133 215.317 14.0143 215.488C14.3963 215.648 14.8229 215.66 15.294 215.523C15.8977 215.347 16.3619 215.077 16.6867 214.711C16.9967 214.349 17.2893 213.873 17.5646 213.282L18.8817 210.48C19.286 209.564 19.8329 208.726 20.5223 207.967C21.1927 207.197 22.1168 206.641 23.2947 206.298C24.1487 206.05 24.9626 206.021 25.7365 206.211C26.5061 206.387 27.1807 206.757 27.7605 207.323C28.3212 207.879 28.7321 208.606 28.9933 209.504ZM26.8363 202.21L11.0882 205.666L11.7243 208.564L9.27558 209.102L7.2835 200.026L9.73221 199.488L10.3584 202.341L26.1066 198.885L26.8363 202.21ZM24.9578 190.347C25.1489 191.652 25.0584 192.726 24.6863 193.571C24.3141 194.416 23.6974 195.072 22.836 195.539C21.9746 196.006 20.9219 196.331 19.6778 196.513L12.7824 197.523C11.5383 197.706 10.4519 197.694 9.52305 197.489C8.57905 197.287 7.81521 196.833 7.23155 196.128C6.64789 195.423 6.2605 194.419 6.06937 193.114C5.87379 191.779 5.9556 190.698 6.31479 189.87C6.67176 189.027 7.27335 188.374 8.11957 187.909C8.9484 187.431 9.98484 187.101 11.2289 186.919L18.1471 185.905C19.3759 185.725 20.4711 185.743 21.4325 185.959C22.3765 186.161 23.1555 186.613 23.7695 187.313C24.3661 188.001 24.7622 189.012 24.9578 190.347ZM22.4773 190.71C22.395 190.149 22.2136 189.757 21.9331 189.535C21.6504 189.297 21.2899 189.164 20.8518 189.135C20.4137 189.106 19.9443 189.129 19.4436 189.202L10.9552 190.446C10.4394 190.521 9.98332 190.634 9.58702 190.785C9.19073 190.936 8.8988 191.165 8.71123 191.472C8.50627 191.765 8.44491 192.192 8.52714 192.754C8.60492 193.285 8.78519 193.669 9.06794 193.907C9.33551 194.146 9.68078 194.282 10.1037 194.313C10.5267 194.344 10.9961 194.322 11.5119 194.246L20.0003 193.003C20.501 192.929 20.9582 192.823 21.3719 192.685C21.7833 192.532 22.0904 192.301 22.2932 191.993C22.4959 191.684 22.5573 191.256 22.4773 190.71ZM23.8142 183.469L5.21878 184.604L5.07442 182.24L15.4046 177.069L4.7983 177.717L4.62731 174.916L23.2227 173.781L23.36 176.031L12.5262 181.255L23.6376 180.576L23.8142 183.469Z" fill="#E2102E"/>
<circle cx="169.401" cy="169.401" r="123.551" stroke="#E2102E" stroke-width="3.03335"/>
</svg>
