<svg width="74" height="48" viewBox="0 0 74 48" fill="none" xmlns="http://www.w3.org/2000/svg">
<path d="M53.5379 24.6543C53.5379 23.479 53.4421 22.3037 53.2504 21.1524H36.984V27.7963H46.303C45.9197 29.931 44.674 31.8499 42.8533 33.0491V37.3665H48.4112C51.6693 34.3683 53.5379 29.931 53.5379 24.6543Z" fill="#4285F4"/>
<path d="M36.9897 41.5397C41.6372 41.5397 45.5661 40.0046 48.4169 37.3662L42.859 33.0489C41.3018 34.1042 39.3134 34.7038 36.9897 34.7038C32.4859 34.7038 28.6768 31.6577 27.3113 27.5802H21.5857V32.0415C24.5084 37.8699 30.4735 41.5397 36.9897 41.5397Z" fill="#34A853"/>
<path d="M27.3101 27.5804C26.5913 25.4457 26.5913 23.1191 27.3101 20.9604V16.5231H21.5836C19.1157 21.3922 19.1157 27.1486 21.5836 32.0177L27.3101 27.5804Z" fill="#FBBC04"/>
<path d="M36.9897 13.8369C39.4572 13.7889 41.8289 14.7243 43.6016 16.4273L48.5366 11.4863C45.3984 8.56009 41.2779 6.95307 36.9897 7.00104C30.4735 7.00104 24.5084 10.6948 21.5857 16.5232L27.3113 20.9845C28.6768 16.883 32.4859 13.8369 36.9897 13.8369Z" fill="#EA4335"/>
</svg>
